<?xml version="1.0" encoding="utf-8"?>
<!-- Generator: Adobe Illustrator 26.0.3, SVG Export Plug-In . SVG Version: 6.00 Build 0)  -->
<svg version="1.1" id="Layer_1" xmlns="http://www.w3.org/2000/svg" xmlns:xlink="http://www.w3.org/1999/xlink" x="0px" y="0px"
	 viewBox="0 0 1292 320" style="enable-background:new 0 0 1292 320;" xml:space="preserve">
<style type="text/css">
	.st0{fill:#023DFE;}
	.st1{fill:#FFFFFF;}
</style>
<g>
	<g>
		<path class="st0" d="M162.27,241.45c-45.1,0-81.79-36.69-81.79-81.79s36.69-81.79,81.79-81.79s81.79,36.69,81.79,81.79
			S207.37,241.45,162.27,241.45z M162.27,117.46c-23.27,0-42.2,18.93-42.2,42.2c0,23.27,18.93,42.2,42.2,42.2s42.2-18.93,42.2-42.2
			C204.47,136.39,185.54,117.46,162.27,117.46z"/>
		<path class="st0" d="M204.47,284.33c0-23.27-18.93-42.2-42.2-42.2s-42.2,18.93-42.2,42.2H80.48c0-45.1,36.69-81.79,81.79-81.79
			s81.79,36.69,81.79,81.79H204.47z"/>
		<path class="st0" d="M38.28,201.86c23.27,0,42.2-18.93,42.2-42.2s-18.93-42.2-42.2-42.2V77.87c45.1,0,81.79,36.69,81.79,81.79
			s-36.69,81.79-81.79,81.79V201.86z"/>
		<path class="st0" d="M286.26,241.45c-45.1,0-81.79-36.69-81.79-81.79s36.69-81.79,81.79-81.79v39.59
			c-23.27,0-42.2,18.93-42.2,42.2s18.93,42.2,42.2,42.2V241.45z"/>
		<path class="st0" d="M244.06,35.67c0,45.1-36.69,81.79-81.79,81.79S80.48,80.77,80.48,35.67l39.59,0c0,23.27,18.93,42.2,42.2,42.2
			s42.2-18.93,42.2-42.2L244.06,35.67z"/>
	</g>
	<g>
		<g>
			<path d="M401.15,133.02c0,3.3,2.19,5.99,6.56,8.05c4.37,2.07,9.7,3.88,15.97,5.45c6.27,1.57,12.54,3.55,18.82,5.94
				c6.27,2.4,11.6,6.4,15.97,12.01c4.37,5.61,6.56,12.63,6.56,21.05c0,12.71-4.75,22.5-14.24,29.35
				c-9.5,6.85-21.34,10.28-35.54,10.28c-25.43,0-42.76-9.82-52.01-29.47l27.74-15.6c3.63,10.74,11.72,16.1,24.27,16.1
				c11.39,0,17.09-3.55,17.09-10.65c0-3.3-2.19-5.98-6.56-8.05c-4.38-2.06-9.7-3.92-15.97-5.57c-6.28-1.65-12.55-3.72-18.82-6.19
				c-6.28-2.48-11.6-6.4-15.97-11.76c-4.38-5.36-6.56-12.09-6.56-20.18c0-12.22,4.5-21.83,13.5-28.85
				c9-7.02,20.18-10.53,33.56-10.53c10.07,0,19.23,2.27,27.49,6.81c8.25,4.54,14.77,11.02,19.56,19.44l-27.24,14.86
				c-3.96-8.42-10.57-12.63-19.81-12.63c-4.13,0-7.55,0.91-10.28,2.72C402.51,127.41,401.15,129.88,401.15,133.02z"/>
			<path d="M556.26,93.85h34.18l-45.15,128.03c-6.44,17.68-14.98,30.53-25.61,38.55c-10.64,8.01-23.87,11.61-39.7,10.78v-29.72
				c8.58,0.16,15.39-1.65,20.43-5.45c5.04-3.8,9.04-9.91,12.01-18.33L461.65,93.85h34.92l32.29,87.23L556.26,93.85z"/>
			<path d="M664.56,94.38c13.54,0,24.72,4.54,33.56,13.62c8.83,9.08,13.25,21.63,13.25,37.64v80.03h-31.95v-76.07
				c0-8.25-2.23-14.57-6.69-18.95c-4.46-4.37-10.4-6.56-17.83-6.56c-8.26,0-14.86,2.56-19.81,7.68c-4.95,5.12-7.43,12.8-7.43,23.03
				v70.87h-31.95V93.85h31.95v17.87C635.41,100.17,647.72,94.38,664.56,94.38z"/>
			<path d="M788.01,225.15c-18.66,0-34.22-6.27-46.68-18.82c-12.47-12.54-18.7-28.07-18.7-46.56c0-18.49,6.23-34.01,18.7-46.56
				c12.46-12.54,28.02-18.82,46.68-18.82c12.05,0,23.03,2.89,32.94,8.67c9.91,5.78,17.42,13.54,22.54,23.28L816,142.43
				c-2.48-5.12-6.23-9.16-11.27-12.14c-5.04-2.97-10.69-4.46-16.97-4.46c-9.58,0-17.5,3.18-23.77,9.53
				c-6.28,6.36-9.41,14.49-9.41,24.39c0,9.74,3.13,17.79,9.41,24.15c6.27,6.36,14.2,9.54,23.77,9.54c6.44,0,12.17-1.44,17.21-4.33
				c5.03-2.89,8.79-6.89,11.27-12.01l27.74,15.85c-5.45,9.74-13.13,17.55-23.03,23.4C811.04,222.21,800.06,225.15,788.01,225.15z"/>
			<path d="M884.25,119.15c2.97-7.92,7.88-13.87,14.73-17.83c6.85-3.96,14.49-5.94,22.91-5.94v35.66
				c-9.74-1.15-18.45,0.83-26.13,5.94c-7.68,5.12-11.52,13.62-11.52,25.51v63.19H852.3V93.85h31.95V119.15z"/>
			<path d="M1035.32,206.2c-12.72,12.63-28.23,18.95-46.56,18.95s-33.81-6.31-46.44-18.95c-12.63-12.63-18.94-28.11-18.94-46.44
				s6.31-33.81,18.94-46.44c12.63-12.63,28.11-18.95,46.44-18.95s33.84,6.31,46.56,18.95c12.71,12.63,19.07,28.11,19.07,46.44
				S1048.03,193.57,1035.32,206.2z M964.86,184.28c6.35,6.44,14.32,9.66,23.9,9.66c9.57,0,17.58-3.22,24.02-9.66
				s9.66-14.61,9.66-24.52c0-9.91-3.22-18.08-9.66-24.52c-6.44-6.44-14.45-9.66-24.02-9.66c-9.58,0-17.55,3.22-23.9,9.66
				c-6.36,6.44-9.54,14.61-9.54,24.52C955.32,169.67,958.5,177.85,964.86,184.28z"/>
			<path d="M1202.09,93.85h30.66l-36.11,131.83h-31.31l-23.42-79.04l-23.42,79.04h-31.31l-36.4-131.83h33.78l21.2,84.03l22.55-84.03
				h30.24l22.55,84.3L1202.09,93.85z"/>
		</g>
		<g>
			<path d="M1241.91,95.82h9.43v2.53h-3.32v10.32h-2.78V98.35h-3.32V95.82z M1265.77,108.67h-2.8v-8.06l-3.28,5.85h-0.95l-3.32-5.93
				v8.13h-2.82V95.82h3.01l3.59,6.13l3.61-6.13h2.96V108.67z"/>
		</g>
	</g>
</g>
</svg>
